Title: Unfair World Aka Adikos Kosmos

Country: Greece, 2011

Language: Greek

Subtitle: English

Director: Filippos Tsitos

Writers: Dora Masklavanou, Filippos Tsitos

Stars: Antonis Kafetzopoulos, Christos Stergioglou and Theodora Tzimou

Plot: Sotiris is a police interrogator in Athens. He has an obsession: he needs to be fair. He judges the suspects after his personal moral and against the law. 
With the intention to save another innocent soul, he accidentally kills a man. 
Dora is the only witness to the crime. She is a poor cleaning woman who leads a breathless life. The struggle to survive has made her unfair.
The righteous Sotiris and the unrighteous Dora like each other.
But love, honesty and justice arenΓÇÖt easy to combine. 

ACADEMY AWARD 2013 (OSCAR) NOMINIE FROM GREECE FOR THE BEST FOREIGN FILM. 

Imdb: 
http://www.imdb.com/title/tt1699758/

Rip Specs:

General
Complete name                    : Unfair.World.[Adikos.Kosmos].2011.DVDRip.AC3.HORiZON-ArtSubs
Format                           : AVI
Format/Info                      : Audio Video Interleave
File size                        : 1.47 GiB
Duration                         : 1h 47mn
Overall bit rate                 : 1 960 Kbps


Video
ID                               : 0
Format                           : MPEG-4 Visual
Format profile                   : Advanced Simple@L5
Format settings, BVOP            : 2
Format settings, QPel            : No
Format settings, GMC             : No warppoints
Format settings, Matrix          : Default (MPEG)
Codec ID                         : XVID
Codec ID/Hint                    : XviD
Duration                         : 1h 47mn
Bit rate                         : 1 502 Kbps
Width                            : 688 pixels
Height                           : 304 pixels
Display aspect ratio             : 2.25:1
Frame rate                       : 25.000 fps
Color space                      : YUV
Chroma subsampling               : 4:2:0
Bit depth                        : 8 bits
Scan type                        : Progressive
Compression mode                 : Lossy
Bits/(Pixel*Frame)               : 0.287
Stream size                      : 1.13 GiB (77%)
Writing library                  : XviD 1.2.1 (UTC 2008-12-04)

Audio
ID                               : 1
Format                           : AC-3
Format/Info                      : Audio Coding 3
Mode extension                   : CM (complete main)
Codec ID                         : 2000
Duration                         : 1h 47mn
Bit rate mode                    : Constant
Bit rate                         : 448 Kbps
Channel(s)                       : 6 channels
Channel positions                : Front: L C R, Side: L R, LFE
Sampling rate                    : 48.0 KHz
Bit depth                        : 16 bits
Compression mode                 : Lossy
Stream size                      : 343 MiB (23%)
Alignment                        : Split accross interleaves
Interleave, duration             : 40 ms (1.00 video frame)
Interleave, preload duration     : 500 ms

